<?xml version="1.0" standalone="no"?>
<!DOCTYPE svg PUBLIC "-//W3C//DTD SVG 1.1//EN" "http://www.w3.org/Graphics/SVG/1.1/DTD/svg11.dtd" >
<svg>
<metadata>
Created by FontForge 20110222 at Sat Mar 29 07:53:45 2014
 By Orthosie Webhosting
Copyright (c) 1991 Digital Typeface Corp.
</metadata>
<defs>
<font id="FetteEngschrift" horiz-adv-x="500" >
  <font-face 
    font-family="FetteEngschrift"
    font-weight="400"
    font-stretch="normal"
    units-per-em="1000"
    panose-1="0 0 0 0 0 0 0 0 0 0"
    ascent="800"
    descent="-200"
    x-height="476"
    cap-height="667"
    bbox="-143 -225 759 912"
    underline-thickness="65"
    underline-position="-67"
    unicode-range="U+0020-2122"
  />
<missing-glyph horiz-adv-x="750" 
d="M46 0v750h658v-750h-658zM658 46v658h-566v-658h566z" />
    <glyph glyph-name=".notdef" horiz-adv-x="750" 
d="M46 0v750h658v-750h-658zM658 46v658h-566v-658h566z" />
    <glyph glyph-name="glyph1" horiz-adv-x="0" 
 />
    <glyph glyph-name="glyph2" horiz-adv-x="176" 
 />
    <glyph glyph-name="space" unicode=" " horiz-adv-x="176" 
 />
    <glyph glyph-name="exclam" unicode="!" horiz-adv-x="218" 
d="M86 167l-36 500h118l-36 -500h-46zM61 0v95h95v-95h-95z" />
    <glyph glyph-name="quotedbl" unicode="&#x22;" horiz-adv-x="364" 
d="M42 667h111l-18 -267h-75zM212 667h111l-18 -267h-76z" />
    <glyph glyph-name="numbersign" unicode="#" 
d="M131 375h-105l31 77h105l44 111h85l-44 -111h100l43 111h83l-45 -111h105l-30 -77h-106l-36 -94h103l-30 -78h-104l-47 -111l-81 1l44 110h-99l-43 -110h-86l45 110h-105l31 78h105zM316 375h-100l-39 -94h101z" />
    <glyph glyph-name="dollar" unicode="$" 
d="M267 -68h-46v64q-71 10 -106.5 60.5t-35.5 109.5v24h96v-24q0 -19 1.5 -28.5t15 -29t49.5 -19.5q20 0 37 8.5t25 22t8.5 28t0.5 19.5v47q0 20 -1.5 30t-12 21.5t-30 21t-68 27.5t-81.5 56.5t-33 105.5v30q0 61 38.5 108.5t96.5 56.5v62h46v-62q62 -8 101 -54.5t39 -110.5
v-30h-95v30q0 14 -2 24t-16 29t-47 19q-29 0 -47.5 -20.5t-18.5 -51.5v-30q0 -19 1.5 -27.5t10.5 -19.5t26 -19t65.5 -25.5t85.5 -57t37 -107.5v-54q0 -33 -6.5 -58t-37 -64.5t-96.5 -47.5v-64z" />
    <glyph glyph-name="percent" unicode="%" horiz-adv-x="554" 
d="M65 -15l366 686h54l-367 -686h-53zM57 628q30 38 75 38q44 0 71 -29t27 -70v-130q0 -37 -17 -59.5t-36 -33t-42 -10.5q-29 0 -53 14t-33 33t-11 31t-2 25v130q0 21 4 34t17 27zM345 285q30 38 75 38q44 0 71 -29t27 -70v-130q0 -37 -17 -59.5t-36 -33t-42 -10.5
q-29 0 -53 14t-33 33t-11 31t-2 25v130q0 21 4 34t17 27zM133 603q-15 0 -24 -11t-9 -25v-130q0 -38 34 -38q16 0 23.5 11.5t7.5 26.5v130q0 15 -8.5 25.5t-23.5 10.5zM421 260q-15 0 -24 -11t-9 -25v-130q0 -38 34 -38q16 0 23.5 11.5t7.5 26.5v130q0 15 -8.5 25.5
t-23.5 10.5z" />
    <glyph glyph-name="ampersand" unicode="&#x26;" horiz-adv-x="491" 
d="M366 360l1 13h79q0 -60 -12.5 -121.5t-35.5 -123.5l59 -129h-108l-16 40q-24 -22 -52 -35t-58 -13q-86 0 -132 56t-46 144q0 67 30.5 117.5t89.5 98.5q-27 52 -35.5 83.5t-8.5 60.5q0 56 38 91t94 35t93.5 -34.5t37.5 -89.5q0 -48 -26.5 -87t-74.5 -85l62 -137
q9 25 13 49.5t8 66.5zM254 598q-18 0 -29 -13t-11 -32q0 -22 7.5 -42.5t20.5 -43.5q25 19 40 40.5t15 47.5q0 18 -12.5 30.5t-30.5 12.5zM223 88q21 0 38.5 13t28.5 34l-79 185q-29 -25 -49 -58t-20 -68q0 -43 20 -74.5t61 -31.5z" />
    <glyph glyph-name="quotesingle" unicode="'" horiz-adv-x="198" 
d="M42 667h114l-18 -267h-78z" />
    <glyph glyph-name="parenleft" unicode="(" horiz-adv-x="263" 
d="M161 390q0 -108 16 -232t43 -213h-38q-64 96 -98 210t-34 231q0 122 30.5 233.5t93.5 213.5h37q-25 -102 -37.5 -216.5t-12.5 -226.5z" />
    <glyph glyph-name="parenright" unicode=")" horiz-adv-x="243" 
d="M101 386q0 108 -16 232t-43 213h38q64 -96 98 -210t34 -231q0 -122 -30.5 -233.5t-93.5 -213.5h-37q25 102 37.5 216.5t12.5 226.5z" />
    <glyph glyph-name="asterisk" unicode="*" horiz-adv-x="331" 
d="M107 536l-63 41l35 55l55 -35v70h66v-70l55 35l35 -55l-62 -40l64 -39l-35 -55l-57 34v-68h-66v68l-55 -36l-36 56z" />
    <glyph glyph-name="plus" unicode="+" 
d="M222 567h54v-195h205v-52h-205v-195h-54v195h-204v52h204v195z" />
    <glyph glyph-name="comma" unicode="," horiz-adv-x="191" 
d="M49 -71v166h95v-95z" />
    <glyph glyph-name="hyphen" unicode="-" horiz-adv-x="387" 
d="M51 215v95h285v-95h-285z" />
    <glyph glyph-name="period" unicode="." horiz-adv-x="191" 
d="M48 0v95h95v-95h-95z" />
    <glyph glyph-name="slash" unicode="/" horiz-adv-x="317" 
d="M62 0l129 667h66l-129 -667h-66z" />
    <glyph glyph-name="zero" unicode="0" horiz-adv-x="352" 
d="M55 609q44 64 119 64q28 0 55.5 -11t45.5 -30l22 54l40 -19l-32 -75q7 -17 9.5 -31t2.5 -38v-376q0 -32 -5.5 -53.5t-36 -60.5t-99.5 -39q-29 0 -55 11.5t-46 32.5l-23 -61l-41 19l36 84q-3 6 -9 22t-6 43v378q0 28 4.5 47t18.5 39zM223 530q0 19 -14.5 33.5t-35.5 14.5
t-33.5 -15.5t-12.5 -39.5v-248l96 232v23zM127 162v-14q0 -17 7.5 -37.5t40.5 -20.5q14 0 26 8t17 19t5 26v249z" />
    <glyph glyph-name="one" unicode="1" horiz-adv-x="352" 
d="M153 0v567l-95 -71v101l95 70h95v-667h-95z" />
    <glyph glyph-name="two" unicode="2" horiz-adv-x="352" 
d="M322 0h-284v88l177 344q12 24 12 49v50q0 20 -14 34t-34 14q-18 0 -32.5 -12.5t-14.5 -31.5v-59h-96v48q0 39 29.5 94t118.5 55q56 0 97 -43t41 -99v-61q0 -21 -5.5 -41t-16.5 -41l-150 -293h172v-95z" />
    <glyph glyph-name="three" unicode="3" horiz-adv-x="352" 
d="M323 153v-12q0 -7 -0.5 -15.5t-3.5 -23.5q-14 -48 -53 -78t-89 -30q-40 0 -75 24t-46 49.5t-14.5 41t-3.5 44.5v39h95v-31q0 -12 0.5 -23.5t10.5 -29t36 -17.5t37 17.5t11 44.5v103q0 25 -12 35t-23.5 12t-24.5 2h-17v84h17q60 0 60 56v80q0 14 -1.5 20.5t-12 20
t-32.5 13.5q-25 0 -37 -15t-12 -39v-49h-95v49q0 63 40.5 105.5t103.5 42.5q35 0 67.5 -18t48 -42t20.5 -44.5t5 -43.5v-78q0 -65 -57 -99q32 -22 44.5 -44.5t12.5 -60.5v-90z" />
    <glyph glyph-name="four" unicode="4" horiz-adv-x="352" 
d="M209 0v102h-190v89l138 476h101l-143 -476h94v190h96v-190h46v-89h-46v-102h-96z" />
    <glyph glyph-name="five" unicode="5" horiz-adv-x="352" 
d="M202 429q25 0 50.5 -14t38 -32.5t17 -39t4.5 -43.5v-150q0 -22 -1.5 -37t-11.5 -42t-48.5 -52t-82.5 -25q-34 0 -64.5 16.5t-47.5 40.5t-23 48.5t-6 50.5v17h97v-17q0 -10 0.5 -20t10.5 -25t35 -15q27 0 36 14.5t10 23t1 18.5v11v130q0 9 -0.5 19t-11 25t-34.5 15
q-35 0 -47 -35h-85v356h273v-89h-188v-179q35 30 78 30z" />
    <glyph glyph-name="six" unicode="6" horiz-adv-x="352" 
d="M303 341q8 -13 10.5 -28t2.5 -37v-128q0 -25 -4.5 -45.5t-30 -61.5t-98.5 -47q-45 0 -81 19.5t-50.5 47t-18 46t-3.5 41.5v105q0 22 1 31.5t7 25.5l132 357h108l-108 -280q20 7 43 7h9q54 -7 81 -53zM212 291q-15 20 -40 20q-13 0 -24.5 -8t-16.5 -19t-5 -31v-105
q0 -22 12 -41t41 -16q26 0 34 17.5t8 39.5v105q0 13 -1.5 21.5t-7.5 16.5z" />
    <glyph glyph-name="seven" unicode="7" horiz-adv-x="352" 
d="M121 500h-84v167h285v-87l-156 -580h-101l162 578h-106v-78z" />
    <glyph glyph-name="eight" unicode="8" horiz-adv-x="352" 
d="M316 137q0 -30 -15 -63t-49 -56.5t-74 -23.5q-43 0 -79 22t-49 49.5t-16 45.5t-3 37v117q0 27 12.5 48.5t35.5 38.5q-48 36 -48 99v90q0 19 7.5 38.5t36 56.5t101.5 37q28 0 53 -11.5t56 -44t31 -87.5v-86q0 -58 -48 -92q48 -33 48 -94v-121zM174 578q-21 0 -35 -14
t-14 -34v-86q0 -23 12.5 -39.5t35.5 -16.5q25 0 36.5 15.5t11.5 40.5v86q0 19 -13.5 33.5t-33.5 14.5zM174 316q-22 0 -35.5 -14.5t-13.5 -36.5v-117q0 -26 12 -42t39 -16q26 0 35.5 17t9.5 41v117q0 22 -12.5 36.5t-34.5 14.5z" />
    <glyph glyph-name="nine" unicode="9" horiz-adv-x="352" 
d="M41 337q-7 14 -8.5 26.5t-1.5 37.5v136q0 20 7.5 39t35 58t98.5 39q67 0 105.5 -45.5t38.5 -103.5v-109q0 -38 -16 -78l-126 -337h-108l111 281q-26 -6 -40 -6q-31 0 -57.5 17.5t-38.5 44.5zM175 579q-24 0 -36 -16t-12 -39v-109q0 -25 13 -41t38 -16q22 0 32.5 15.5
t10.5 41.5v109q0 25 -10.5 40t-35.5 15z" />
    <glyph glyph-name="colon" unicode=":" horiz-adv-x="329" 
d="M117 297v95h95v-95h-95zM117 86v95h95v-95h-95z" />
    <glyph glyph-name="semicolon" unicode=";" horiz-adv-x="330" 
d="M118 -71v166h94v-95zM117 167v95h95v-95h-95z" />
    <glyph glyph-name="less" unicode="&#x3c;" 
d="M143 335l323 -154v-102l-433 213v88l433 212v-103z" />
    <glyph glyph-name="equal" unicode="=" 
d="M481 393h-463v51h463v-51zM481 249h-463v51h463v-51z" />
    <glyph glyph-name="greater" unicode="&#x3e;" 
d="M357 336l-323 154v102l433 -213v-88l-433 -212v103z" />
    <glyph glyph-name="question" unicode="?" horiz-adv-x="374" 
d="M168 338l50 82q16 25 16 61v52q0 20 -14 32t-35 12q-24 0 -34.5 -15t-10.5 -40v-46h-95v46q0 64 41.5 107.5t105.5 43.5q55 0 96 -42t41 -98v-57q0 -49 -23 -90l-59 -103q-13 -25 -13 -63v-53h-96v53q0 39 5.5 63.5t24.5 54.5zM138 0v95h96v-95h-96z" />
    <glyph glyph-name="at" unicode="@" horiz-adv-x="804" 
d="M535 522v-298q0 -17 16 -17q35 0 82.5 58.5t47.5 135.5q0 95 -58 139t-103.5 60.5t-90.5 16.5q-63 0 -117.5 -22.5t-98 -64.5t-67 -97t-23.5 -117t24.5 -118.5t67.5 -96.5t100 -61t114 -21q53 0 99 13.5t79 36t48 39.5t35 45h67q-21 -47 -43 -79t-63 -62.5t-99.5 -49
t-119.5 -18.5q-74 0 -142.5 23.5t-124.5 74t-88 122.5t-32 152q0 75 28.5 143t79.5 120.5t118.5 82t143.5 29.5q71 0 131 -18t109 -59.5t76.5 -97.5t27.5 -118q0 -111 -53 -170.5t-102.5 -87.5t-92.5 -28q-26 0 -38.5 17.5t-17.5 26.5q-14 -20 -33 -32t-43 -12q-22 0 -44 13
t-30 28t-10 27.5t-2 25.5v233q0 35 24.5 61.5t59.5 26.5q25 0 45 -12t33 -33v40h80zM413 446q-18 0 -28.5 -13.5t-10.5 -31.5v-155q0 -25 8.5 -39t31.5 -14q25 0 32 13t8 22.5t1 17.5v155q0 19 -11 32t-31 13z" />
    <glyph glyph-name="A" unicode="A" horiz-adv-x="379" 
d="M1 0l149 667h83l149 -667h-102l-27 143h-124l-27 -143h-101zM146 232h90l-45 243z" />
    <glyph glyph-name="B" unicode="B" horiz-adv-x="403" 
d="M209 667q29 0 58 -13t61 -45t32 -99v-51q0 -76 -60 -108q60 -35 60 -111v-78q0 -70 -45 -116t-116 -46h-147v667h157zM266 469v41q0 31 -18 49t-48 18h-54v-184h57q33 0 48 20.5t15 55.5zM266 162v78q0 32 -17.5 50.5t-48.5 18.5h-54v-214h55q29 0 47 19t18 48z" />
    <glyph glyph-name="C" unicode="C" horiz-adv-x="385" 
d="M354 168q0 -32 -3.5 -54.5t-20 -49.5t-52 -48.5t-72.5 -21.5q-44 0 -80.5 19t-53.5 48t-21.5 53.5t-4.5 53.5v344q0 28 5.5 50t23.5 48t50.5 44.5t68.5 18.5q69 0 114.5 -45.5t45.5 -115.5v-36h-94v36q0 28 -15.5 46.5t-45.5 18.5q-28 0 -43.5 -18.5t-15.5 -46.5v-344
q0 -13 0.5 -26t13.5 -33t46 -20q35 0 45.5 17.5t12.5 26t2 23.5v12v22h94v-22z" />
    <glyph glyph-name="D" unicode="D" horiz-adv-x="405" 
d="M203 667q64 0 110.5 -45.5t46.5 -109.5v-347q0 -72 -44.5 -118.5t-115.5 -46.5h-148v667h151zM266 165v347q0 28 -20.5 46.5t-49.5 18.5h-50v-488h47q73 0 73 76z" />
    <glyph glyph-name="E" unicode="E" horiz-adv-x="373" 
d="M337 96v-96h-285v667h285v-88h-191v-197h168v-90h-168v-196h191z" />
    <glyph glyph-name="F" unicode="F" horiz-adv-x="368" 
d="M52 0v667h284v-90h-190v-200h167v-89h-167v-288h-94z" />
    <glyph glyph-name="G" unicode="G" horiz-adv-x="408" 
d="M342 70q-22 -36 -58 -56t-79 -20q-38 0 -73 18t-54.5 44.5t-26 53t-6.5 60.5v334q0 27 5.5 49.5t36.5 71t121 48.5q40 0 75 -19t53 -46.5t23.5 -51.5t5.5 -52v-28h-94v28q0 17 -1.5 26.5t-15 28.5t-47.5 19q-39 0 -51.5 -20.5t-14.5 -30.5t-2 -23v-334q0 -19 1.5 -28.5
t15 -30.5t50.5 -21q40 0 50.5 21t12.5 31t2 28v117h-77v83h171v-200q0 -42 -5 -60.5t-18 -39.5z" />
    <glyph glyph-name="H" unicode="H" horiz-adv-x="414" 
d="M52 0v667h94v-285h122v285h94v-667h-94v298h-122v-298h-94z" />
    <glyph glyph-name="I" unicode="I" horiz-adv-x="199" 
d="M52 0v667h94v-667h-94z" />
    <glyph glyph-name="J" unicode="J" horiz-adv-x="327" 
d="M256 67q-22 -33 -57 -53t-74 -20q-37 0 -70.5 16.5t-59.5 45.5l74 59q24 -24 54 -24q42 0 52.5 22t11.5 31t1 21v22v480h94v-493q0 -47 -5.5 -65.5t-20.5 -41.5z" />
    <glyph glyph-name="K" unicode="K" horiz-adv-x="423" 
d="M308 0l-107 298l-53 -99v-199h-94v667h95v-307l143 307h94l-130 -266l153 -401h-101z" />
    <glyph glyph-name="L" unicode="L" horiz-adv-x="357" 
d="M337 0h-284v667h95v-571h189v-96z" />
    <glyph glyph-name="M" unicode="M" horiz-adv-x="532" 
d="M385 0v406l-95 -285h-48l-95 285v-406h-95v667h89l127 -355l124 355h88v-667h-95z" />
    <glyph glyph-name="N" unicode="N" horiz-adv-x="437" 
d="M296 0l-149 405v-405h-95v667h90l148 -404v404h95v-667h-89z" />
    <glyph glyph-name="O" unicode="O" horiz-adv-x="411" 
d="M74 604q23 32 58 50.5t73 18.5q37 0 69.5 -15t54 -41t29.5 -53t8 -59v-340q0 -30 -5.5 -52.5t-23.5 -50.5t-53 -48t-76 -20q-47 0 -86.5 24t-55 54.5t-18.5 49t-3 43.5v340q0 30 6.5 53t22.5 46zM259 552q-20 27 -52 27q-17 0 -33.5 -9.5t-23 -21t-8.5 -23.5t-2 -20v-340
q0 -10 1.5 -22t16 -32.5t49.5 -20.5q18 0 32.5 8.5t21 19.5t8.5 21t2 26v340q0 20 -1.5 28t-10.5 19z" />
    <glyph glyph-name="P" unicode="P" horiz-adv-x="377" 
d="M52 0v667h156q29 0 58 -12t48.5 -31.5t33 -46.5t13.5 -52v-97q0 -37 -10 -66t-34.5 -53.5t-53 -35t-66.5 -10.5h-50v-263h-95zM254 372q9 9 11.5 19t2.5 25v12v87q0 28 -17 46t-46 18h-58v-226h50q20 0 32.5 3.5t24.5 15.5z" />
    <glyph glyph-name="Q" unicode="Q" horiz-adv-x="408" 
d="M83 52q-23 25 -30.5 52.5t-7.5 65.5v332q0 72 45.5 121.5t117.5 49.5q65 0 112.5 -46.5t47.5 -111.5v-345q0 -29 -2.5 -43t-8.5 -27l63 -53l-53 -64l-59 48q-43 -36 -106 -36q-33 0 -65 16t-54 41zM241 195l32 -25v332q0 32 -18 54t-50 22q-20 0 -35 -10t-21.5 -23.5
t-7.5 -21t-1 -21.5v-332q0 -18 2.5 -30.5t12 -24.5t22 -19t31.5 -7q11 0 24 6l-44 36z" />
    <glyph glyph-name="R" unicode="R" horiz-adv-x="412" 
d="M51 0v667h167q66 0 111 -46t45 -112v-62q0 -92 -78 -141l101 -306h-101l-90 286h-60v-286h-95zM263 391q9 11 12.5 25t3.5 31v62q0 31 -17 50t-48 19h-68v-208h67q30 0 50 21z" />
    <glyph glyph-name="S" unicode="S" horiz-adv-x="387" 
d="M122 166q0 -19 1.5 -28.5t15 -29t49.5 -19.5q20 0 37 8.5t25 22t8.5 28t0.5 19.5v47q0 20 -1.5 30t-12 21.5t-30 21t-68 27.5t-81.5 56.5t-33 105.5v30q0 68 45.5 117.5t113.5 49.5q69 0 115.5 -48.5t46.5 -118.5v-30h-95v30q0 14 -2 24t-16 29t-47 19q-29 0 -47.5 -20.5
t-18.5 -51.5v-30q0 -19 1.5 -27.5t10.5 -19.5t26 -19t65.5 -25.5t85.5 -57t37 -107.5v-54q0 -33 -6.5 -58t-40.5 -69.5t-117 -44.5q-86 0 -125 56.5t-39 115.5v24h96v-24z" />
    <glyph glyph-name="T" unicode="T" horiz-adv-x="352" 
d="M128 0v578h-112v89h321v-89h-114v-578h-95z" />
    <glyph glyph-name="U" unicode="U" horiz-adv-x="413" 
d="M340 70q-21 -34 -56 -55t-76 -21q-42 0 -79.5 21.5t-52.5 49t-19.5 48t-4.5 44.5v510h95v-510q0 -13 2 -22.5t15.5 -27.5t44.5 -18q29 0 43.5 21t14.5 47v510h95v-510q0 -24 -5 -45.5t-17 -41.5z" />
    <glyph glyph-name="V" unicode="V" horiz-adv-x="369" 
d="M142 0l-136 667h100l77 -463l79 463h101l-139 -667h-82z" />
    <glyph glyph-name="W" unicode="W" horiz-adv-x="536" 
d="M346 0l-78 406l-77 -406h-88l-97 667h102l47 -403l77 403h71l78 -403l48 403h101l-94 -667h-90z" />
    <glyph glyph-name="X" unicode="X" horiz-adv-x="384" 
d="M277 0l-83 226l-84 -226h-101l137 352l-124 315h100l72 -196l72 196h100l-125 -315l137 -352h-101z" />
    <glyph glyph-name="Y" unicode="Y" horiz-adv-x="348" 
d="M125 0v287l-129 380h100l77 -261l79 261h100l-132 -380v-287h-95z" />
    <glyph glyph-name="Z" unicode="Z" horiz-adv-x="345" 
d="M32 0v86l179 492h-166v89h273v-77l-179 -494h179v-96h-286z" />
    <glyph glyph-name="bracketleft" unicode="[" horiz-adv-x="282" 
d="M134 595v-686h96v-71h-178v828h178v-71h-96z" />
    <glyph glyph-name="backslash" unicode="\" horiz-adv-x="317" 
d="M255 0h-66l-129 667h65z" />
    <glyph glyph-name="bracketright" unicode="]" horiz-adv-x="282" 
d="M148 -90v685h-96v71h178v-828h-178v72h96z" />
    <glyph glyph-name="asciicircum" unicode="^" 
d="M192 669h116l167 -303h-95l-130 233l-130 -233h-94z" />
    <glyph glyph-name="underscore" unicode="_" 
d="M510 -131h-520v65h520v-65z" />
    <glyph glyph-name="grave" unicode="`" 
d="M256 548l-137 136h94l104 -136h-61z" />
    <glyph glyph-name="a" unicode="a" horiz-adv-x="361" 
d="M45 50q-7 12 -9 26.5t-2 32.5v54q0 53 26.5 79t48 35.5t51.5 9.5h64v41q0 14 -1.5 23t-12.5 23t-30 14q-20 0 -34 -13t-17 -34h-95q0 58 41.5 99.5t100.5 41.5q58 0 101 -41t43 -100v-341h-96v48q-15 -25 -37.5 -39.5t-50.5 -14.5q-63 0 -91 56zM130 164v-24
q0 -19 13.5 -34.5t35.5 -15.5q12 0 22.5 6t16 16.5t6 27t0.5 23.5v46h-36q-26 0 -42 -10t-16 -35z" />
    <glyph glyph-name="b" unicode="b" horiz-adv-x="367" 
d="M228 482q59 0 77 -30.5t21 -48t3 -31.5v-261q0 -25 -3.5 -42t-25 -46t-73.5 -29q-28 0 -50.5 14.5t-37.5 39.5v-48h-96v667h96v-237q32 52 89 52zM185 388q-20 0 -33 -16t-13 -37v-188q0 -23 8.5 -40t37.5 -17q21 0 34.5 12.5t13.5 28.5v204q0 23 -13 38t-35 15z" />
    <glyph glyph-name="c" unicode="c" horiz-adv-x="343" 
d="M320 137q0 -59 -43 -101t-102 -42q-32 0 -63.5 16.5t-47.5 39.5t-22.5 47t-6.5 49v186q0 59 40.5 104.5t100.5 45.5q62 0 103 -44t41 -106h-95q0 22 -12.5 39t-34.5 17q-13 0 -22.5 -5.5t-17 -17t-7.5 -33.5v-186q0 -26 11 -41t37 -15q21 0 33.5 15.5t12.5 37.5h95v-6z
" />
    <glyph glyph-name="d" unicode="d" horiz-adv-x="366" 
d="M229 0v49q-14 -24 -37 -39.5t-51 -15.5q-65 0 -82 35.5t-18.5 51t-1.5 41.5v257q0 43 29 73t73 30q27 0 50.5 -14t37.5 -37v236h96v-667h-96zM222 365q-14 24 -41 24q-14 0 -25.5 -7.5t-15.5 -18t-4.5 -22t-0.5 -17.5v-171q0 -10 0.5 -20t9.5 -26t37 -16q29 0 38 16t9 32
v14v171q0 10 -0.5 20.5t-6.5 20.5z" />
    <glyph glyph-name="e" unicode="e" horiz-adv-x="353" 
d="M175 91q21 0 34 13t16 34h95v-11q0 -22 -9.5 -44t-39.5 -55.5t-94 -33.5q-41 0 -75.5 22t-47.5 48.5t-16.5 48t-3.5 42.5v181q0 59 42.5 102.5t101.5 43.5q61 0 101.5 -42.5t40.5 -103.5v-132h-190v-71q0 -15 14.5 -28.5t30.5 -13.5zM177 388q-19 0 -33 -13t-14 -46v-47
h94v47q0 26 -11 42.5t-36 16.5z" />
    <glyph glyph-name="f" unicode="f" horiz-adv-x="235" 
d="M63 0v400h-47v76h47v66q0 56 28 83t52 34.5t53 7.5h33v-88h-35q-35 0 -35 -37v-66h70v-76h-70v-400h-96z" />
    <glyph glyph-name="g" unicode="g" horiz-adv-x="363" 
d="M299 -131q-20 -30 -51 -47.5t-66 -17.5q-61 0 -104.5 41.5t-43.5 103.5h96q0 -20 13 -34t34 -14q30 0 44 27q4 10 4 32v89q-14 -24 -38 -39.5t-51 -15.5q-29 0 -53.5 15.5t-35 35.5t-12 32t-1.5 37v264q0 18 4.5 33t25 43.5t71.5 28.5q27 0 50 -13.5t40 -37.5v44h96v-516
q0 -28 -4.5 -49.5t-17.5 -41.5zM216 370q-15 20 -39 20q-28 0 -36.5 -16.5t-9.5 -25t-1 -17.5v-181q0 -14 1.5 -22.5t11.5 -22.5t36 -14q31 0 38 17.5t7 26.5t1 15v181q0 14 -1.5 22t-7.5 17z" />
    <glyph glyph-name="h" unicode="h" horiz-adv-x="371" 
d="M231 482q26 0 49 -14t33 -32.5t12.5 -31.5t2.5 -34v-370h-96v334q0 24 -11 39t-35 15q-21 0 -34.5 -16.5t-13.5 -37.5v-334h-96v667h96v-237q33 52 93 52z" />
    <glyph glyph-name="i" unicode="i" horiz-adv-x="180" 
d="M42 0v476h96v-476h-96zM42 573v94h96v-94h-96z" />
    <glyph glyph-name="j" unicode="j" horiz-adv-x="181" 
d="M102 -150q-18 -20 -44.5 -30t-54.5 -10h-17v91h9q27 0 37 16t10 44v515h96v-523q0 -33 -7.5 -56.5t-28.5 -46.5zM42 575v92h96v-92h-96z" />
    <glyph glyph-name="k" unicode="k" horiz-adv-x="380" 
d="M42 0v667h96v-397l120 206h95l-113 -189l136 -287h-107l-83 203l-48 -71v-132h-96z" />
    <glyph glyph-name="l" unicode="l" horiz-adv-x="202" 
d="M138 667v-530q0 -24 8 -35t32 -11h7v-91h-21q-23 0 -43 5t-40 20.5t-29.5 40t-9.5 52.5v549h96z" />
    <glyph glyph-name="m" unicode="m" horiz-adv-x="561" 
d="M313 433q19 24 42 36.5t52 12.5q49 0 80.5 -34.5t31.5 -83.5v-364h-96v337q0 23 -11.5 37.5t-35.5 14.5q-20 0 -33.5 -15.5t-13.5 -36.5v-337h-96v337q0 22 -13 37t-35 15q-20 0 -33.5 -15.5t-13.5 -36.5v-337h-96v476h96v-43q33 49 90 49q27 0 48.5 -12.5t36.5 -36.5z
" />
    <glyph glyph-name="n" unicode="n" horiz-adv-x="370" 
d="M313 433q8 -12 11 -29t3 -34v-370h-96v335q0 53 -47 53q-21 0 -34 -16t-13 -37v-335h-96v476h96v-46q32 52 89 52q58 0 87 -49z" />
    <glyph glyph-name="o" unicode="o" horiz-adv-x="355" 
d="M66 427q21 26 49.5 40.5t61.5 14.5q37 0 65.5 -13.5t53.5 -46.5t25 -86v-190q0 -54 -24 -86.5t-54 -49t-61 -16.5q-43 0 -78.5 21.5t-49 48t-16.5 44t-3 38.5v190q0 54 31 91zM179 389q-22 0 -35 -15t-13 -38v-190q0 -23 12.5 -39.5t35.5 -16.5q31 0 38.5 18t7.5 40v188
q0 22 -12.5 37.5t-33.5 15.5z" />
    <glyph glyph-name="p" unicode="p" horiz-adv-x="363" 
d="M43 -190v666h96v-46q15 24 39 38.5t52 14.5q42 0 70.5 -31.5t28.5 -74.5v-274q0 -21 -4 -36.5t-25 -43.5t-68 -28q-63 0 -93 53v-238h-96zM186 388q-22 0 -34.5 -15.5t-12.5 -37.5v-186q0 -26 12 -42.5t39 -16.5q28 0 35.5 19t7.5 40v186q0 22 -12.5 37.5t-34.5 15.5z
" />
    <glyph glyph-name="q" unicode="q" horiz-adv-x="366" 
d="M228 -190v237q-17 -24 -39 -38t-50 -14q-27 0 -52 15t-35 33t-12 31.5t-2 30.5v275q0 42 28.5 72.5t70.5 30.5q58 0 91 -53v46h96v-666h-96zM179 388q-22 0 -33.5 -15t-11.5 -38v-182q0 -11 0.5 -21t10 -26t35.5 -16q29 0 38 16t9.5 28.5t0.5 18.5v182q0 23 -13 38
t-36 15z" />
    <glyph glyph-name="r" unicode="r" horiz-adv-x="280" 
d="M262 482v-98q-7 2 -14 3t-13 1q-47 0 -72 -32t-25 -77v-279h-96v476h96v-51q25 31 61.5 44t62.5 13z" />
    <glyph glyph-name="s" unicode="s" horiz-adv-x="330" 
d="M164 84q22 0 38 14t16 36q0 26 -13.5 38.5t-42.5 22.5l-19 7q-30 11 -50 21.5t-43 38t-23 79.5q0 59 41 100t101 41q55 0 93 -42t38 -95h-88q0 21 -13.5 34.5t-35.5 13.5q-20 0 -33 -15t-13 -36q0 -22 13 -34t38 -21l31 -10q27 -10 42.5 -19t31 -27t25.5 -42t10 -51
q0 -58 -41.5 -101.5t-99.5 -43.5q-35 0 -70.5 19t-55 51.5t-19.5 73.5h89q0 -22 15.5 -37.5t37.5 -15.5z" />
    <glyph glyph-name="t" unicode="t" horiz-adv-x="236" 
d="M185 91h22v-91h-30q-27 0 -48 5.5t-41 22.5t-28 37.5t-8 50.5v285h-47v75h47v144h96v-144h59v-75h-59v-268q0 -24 6.5 -33t30.5 -9z" />
    <glyph glyph-name="u" unicode="u" horiz-adv-x="371" 
d="M233 0v48q-17 -26 -37.5 -40t-49.5 -14t-54.5 16t-35.5 36.5t-11.5 33.5t-1.5 38v358h96v-322q0 -11 0.5 -22.5t11 -26.5t36.5 -15q13 0 24 7t15.5 16.5t5.5 20.5t1 20v322h96v-476h-96z" />
    <glyph glyph-name="v" unicode="v" horiz-adv-x="328" 
d="M123 0l-124 476h101l65 -308l66 308h101l-125 -476h-84z" />
    <glyph glyph-name="w" unicode="w" horiz-adv-x="506" 
d="M309 0l-54 286l-54 -286h-83l-114 476h101l60 -296l54 296h70l55 -296l59 296h101l-113 -476h-82z" />
    <glyph glyph-name="x" unicode="x" horiz-adv-x="318" 
d="M225 0l-63 149l-67 -149h-101l121 246l-113 230h102l58 -134l62 134h101l-115 -230l116 -246h-101z" />
    <glyph glyph-name="y" unicode="y" horiz-adv-x="329" 
d="M56 -190h-22v90h20q19 0 34.5 10t19.5 28l21 81l-132 457h101l66 -295l65 295h101l-137 -556q-14 -53 -48 -81.5t-89 -28.5z" />
    <glyph glyph-name="z" unicode="z" horiz-adv-x="305" 
d="M22 0v79l153 315h-142v82h249v-69l-153 -316h153v-91h-260z" />
    <glyph glyph-name="braceleft" unicode="{" horiz-adv-x="315" 
d="M177 -8q0 -56 20 -73.5t76 -17.5v-89h-58q-76 0 -108 34t-32 105v162q0 39 -11.5 62t-45.5 32v80q31 9 44 31.5t13 58.5v173q0 68 35 98.5t116 30.5h47v-93q-55 0 -75.5 -17t-20.5 -71v-138q0 -43 -11 -69.5t-45 -45.5q32 -18 44 -47t12 -71v-135z" />
    <glyph glyph-name="bar" unicode="|" horiz-adv-x="208" 
d="M156 -167h-104v833h104v-833z" />
    <glyph glyph-name="braceright" unicode="}" horiz-adv-x="315" 
d="M138 499q0 56 -20 73.5t-76 17.5v89h58q76 0 108 -34t32 -105v-162q0 -39 11.5 -62t45.5 -32v-80q-31 -9 -44 -31.5t-13 -58.5v-173q0 -68 -35 -98.5t-116 -30.5h-47v93q55 0 75.5 17t20.5 71v138q0 43 11 69.5t45 45.5q-32 18 -44 47t-12 71v135z" />
    <glyph glyph-name="asciitilde" unicode="~" horiz-adv-x="667" 
d="M239 433q31 0 102 -33.5t99 -33.5q26 0 45 19t37 51l52 -43q-17 -44 -51.5 -82t-91.5 -38q-30 0 -105 33.5t-90 33.5q-33 0 -52 -18.5t-37 -51.5l-53 43q24 54 58.5 87t86.5 33z" />
    <glyph glyph-name="asciitilde" unicode="&#x2dc;" horiz-adv-x="667" 
d="M239 433q31 0 102 -33.5t99 -33.5q26 0 45 19t37 51l52 -43q-17 -44 -51.5 -82t-91.5 -38q-30 0 -105 33.5t-90 33.5q-33 0 -52 -18.5t-37 -51.5l-53 43q24 54 58.5 87t86.5 33z" />
    <glyph glyph-name="nonbreakingspace" unicode="&#xa0;" horiz-adv-x="250" 
 />
    <glyph glyph-name="exclamdown" unicode="&#xa1;" horiz-adv-x="218" 
d="M132 297l36 -500h-118l36 500h46zM157 464v-95h-95v95h95z" />
    <glyph glyph-name="cent" unicode="&#xa2;" 
d="M390 434h-95q0 22 -12.5 39t-34.5 17q-25 0 -36.5 -17t-11.5 -39v-186q0 -26 11.5 -41t37.5 -15q21 0 33.5 15.5t12.5 37.5h95v-6q0 -53 -34.5 -92.5t-86.5 -48.5v-104h-46v104q-27 5 -51.5 21t-39 36t-21 44t-6.5 49v186q0 53 33.5 96t84.5 52v90h46v-90q53 -7 87 -49
t34 -99z" />
    <glyph glyph-name="sterling" unicode="&#xa3;" horiz-adv-x="610" 
d="M254 298q3 -11 5.5 -27t2.5 -41q0 -52 -27 -85t-55 -57q15 6 39.5 15t44.5 9q38 0 88 -18t68 -18q36 0 66.5 17t53.5 45l38 -83q-33 -33 -70 -52t-78 -19q-39 0 -114.5 24.5t-85.5 24.5q-30 0 -54.5 -10t-52.5 -32l-53 78q42 27 69.5 68.5t27.5 87.5q0 18 -4.5 35
t-13.5 38h-85v41h62q-31 51 -41.5 80.5t-10.5 55.5q0 43 21.5 82.5t57 64t78 35t87.5 10.5q68 0 123 -22t80 -61.5t33.5 -78.5t8.5 -76h-95q0 33 -5.5 57t-24 48.5t-49.5 37t-67 12.5q-55 0 -97.5 -29t-42.5 -82q0 -25 8 -43t19 -36t17.5 -28t14.5 -27h120v-41h-107z" />
    <glyph glyph-name="currency" unicode="&#xa4;" horiz-adv-x="697" 
d="M109 341q0 37 11.5 68.5t35.5 68.5l-98 97l55 54l97 -97q39 23 71 34.5t70 11.5q35 0 66 -11.5t67 -34.5l98 97l54 -54l-96 -96q22 -31 34.5 -67t12.5 -72t-11 -67t-33 -69l96 -95l-54 -55l-96 95q-33 -23 -67 -34.5t-75 -11.5q-36 0 -68.5 11.5t-69.5 34.5l-95 -95
l-54 54l94 96q-45 64 -45 137zM349 192q60 0 104 44t44 105t-43 105t-105 44q-61 0 -105 -44t-44 -105t44 -105t105 -44z" />
    <glyph glyph-name="yen" unicode="&#xa5;" 
d="M299 287l89 -3v-43h-89v-241h-96v241h-88v43h88l-38 116h-103v43h88l-76 224h100l77 -261l79 261h100l-77 -224h88v-43h-103z" />
    <glyph glyph-name="brokenbar" unicode="&#xa6;" 
d="M302 326h-104v340h104v-340zM302 -167h-104v320h104v-320z" />
    <glyph glyph-name="section" unicode="&#xa7;" horiz-adv-x="571" 
d="M292 590q-37 0 -65 -18t-28 -56q0 -31 22 -48t71 -42q35 -16 72.5 -35.5t75 -43t61.5 -54.5t24 -75q0 -42 -28 -78t-74 -50q27 -24 40 -48t13 -58q0 -69 -55.5 -107.5t-128.5 -38.5q-47 0 -82.5 11t-60 36t-37 58t-12.5 65v13h80q0 -23 3.5 -38t16 -34t37.5 -29.5
t54 -10.5q38 0 67 19.5t29 56.5q0 26 -12 43.5t-31.5 30.5t-49 29t-94.5 48t-104 65t-39 93q0 50 28.5 83t71.5 49q-46 40 -46 97q0 66 56 100.5t124 34.5q81 0 132 -46t51 -125h-80q0 47 -27 75t-75 28zM203 221q53 -29 108.5 -59t62.5 -32q29 7 50 29t21 51q0 24 -25 50.5
t-53 39.5q-50 26 -102 53t-61 30q-29 -8 -49 -29.5t-20 -50.5q0 -22 21.5 -45t46.5 -37z" />
    <glyph glyph-name="dieresis" unicode="&#xa8;" 
d="M299 568v111h83v-111h-83zM119 568v111h83v-111h-83z" />
    <glyph glyph-name="copyright" unicode="&#xa9;" horiz-adv-x="778" 
d="M390 -12q-143 0 -244.5 101.5t-101.5 244.5t101 244t245 101q141 0 242.5 -101.5t101.5 -243.5t-101 -244t-243 -102zM390 59q112 0 190.5 81.5t78.5 193.5t-79 193t-190 81q-112 0 -191.5 -80.5t-79.5 -193.5q0 -112 79.5 -193.5t191.5 -81.5zM482 237q0 -24 -1.5 -34
t-12.5 -28t-30 -30.5t-42 -12.5q-25 0 -49 12t-34 28.5t-13 33t-3 31.5v206q0 33 22 64.5t67 31.5q42 0 69 -27t27 -69v-22h-56v22q0 39 -37 39q-17 0 -26 -11t-9 -28v-206q0 -22 8 -35t28 -13t28 13t8 35v13h56v-13z" />
    <glyph glyph-name="ordfeminine" unicode="&#xaa;" horiz-adv-x="247" 
d="M35 293v47h174v-47h-174zM42 417q-4 7 -5 15.5t-1 20.5v33q0 31 22 55q18 16 32 18.5t28 2.5h33v25q0 17 -7.5 26.5t-18.5 9.5q-12 0 -21 -8t-11 -20h-57q0 35 25 60t61 25t62 -24t26 -61v-208h-59v29q-19 -33 -53 -33q-17 0 -32 9t-24 25zM94 487v-15q0 -25 24 -30
q23 0 28 10t5 20v14v28h-22q-14 0 -24.5 -4t-10.5 -23z" />
    <glyph glyph-name="guillemotleft" unicode="&#xab;" horiz-adv-x="420" 
d="M207 97l-190 191l190 190v-94l-95 -96l95 -95v-96zM395 97l-190 191l190 190v-94l-95 -96l95 -95v-96z" />
    <glyph glyph-name="logicalnot" unicode="&#xac;" 
d="M33 191v91h433v-282h-100v191h-333z" />
    <glyph glyph-name="registered" unicode="&#xae;" horiz-adv-x="778" 
d="M390 -12q-143 0 -244.5 101.5t-101.5 244.5t101 244t245 101q142 0 243 -101t101 -244t-100.5 -244.5t-243.5 -101.5zM390 59q112 0 190.5 81.5t78.5 193.5t-79 193t-190 81q-112 0 -191.5 -80.5t-79.5 -193.5q0 -112 79.5 -193.5t191.5 -81.5zM305 137v391h98
q39 0 65 -27t26 -66v-36q0 -53 -46 -83l59 -179h-59l-52 168h-34v-168h-57zM432 366q6 7 7.5 13.5t1.5 19.5v36q0 18 -11.5 29.5t-29.5 11.5h-38v-122h38q20 0 32 12z" />
    <glyph glyph-name="degree" unicode="&#xb0;" 
d="M103 515q0 64 41.5 107.5t105.5 43.5q60 0 103 -44t43 -104t-44 -103t-103 -43q-58 0 -102 42t-44 101zM148 516q0 -40 30 -70t70 -30q41 0 72 30t31 72t-30 73t-71 31q-44 0 -73 -31t-29 -75z" />
    <glyph glyph-name="plusminus" unicode="&#xb1;" 
d="M222 577h54v-195h205v-52h-205v-191h-54v191h-204v52h204v195zM481 44h-463v52h463v-52z" />
    <glyph glyph-name="twosuperior" unicode="&#xb2;" horiz-adv-x="236" 
d="M209 267h-185v56l111 204q6 14 6 27v30q0 11 -7 18t-18 7q-10 0 -17.5 -6.5t-7.5 -16.5v-38h-68v32q0 38 27.5 64.5t68.5 26.5q36 0 63 -25t27 -62v-37q0 -12 -3.5 -24t-11.5 -26l-90 -167h105v-63z" />
    <glyph glyph-name="threesuperior" unicode="&#xb3;" horiz-adv-x="242" 
d="M209 360q0 -18 -2.5 -28.5t-12.5 -27.5t-32.5 -29t-47.5 -12q-26 0 -48.5 14t-30 30.5t-9.5 29t-2 23.5v27h67v-22q0 -19 4 -28.5t21 -9.5q14 0 20 9.5t6 23.5v61q0 15 -9 20.5t-24 5.5h-15v56h15q33 0 33 30v47q0 28 -24 28q-27 0 -27 -28v-33h-67v33q0 38 27 64t66 26
q38 0 65 -26t27 -64v-46q0 -33 -33 -59q33 -23 33 -62v-53z" />
    <glyph glyph-name="acute" unicode="&#xb4;" 
d="M193 548l103 136h94l-137 -136h-60z" />
    <glyph glyph-name="mu" unicode="&#xb5;" 
d="M206 476v-322q0 -11 0.5 -22.5t11 -26.5t37.5 -15q28 0 36.5 16.5t9.5 27.5t1 20v322h95v-476h-95v48q-6 -25 -20 -37t-33 -12q-22 0 -30.5 3t-13.5 8v-166h-94v632h95z" />
    <glyph glyph-name="paragraph" unicode="&#xb6;" horiz-adv-x="545" 
d="M213 315q-76 0 -126.5 49.5t-50.5 125.5q0 48 21.5 88.5t55.5 59t68.5 24t74.5 5.5h242v-42h-56v-738h-53v738h-102v-738h-53v429z" />
    <glyph glyph-name="periodcentered" unicode="&#xb7;" horiz-adv-x="213" 
d="M57 178v138h98v-138h-98z" />
    <glyph glyph-name="periodcentered" unicode="&#x2219;" horiz-adv-x="213" 
d="M57 178v138h98v-138h-98z" />
    <glyph glyph-name="cedilla" unicode="&#xb8;" 
d="M283 -50q35 0 59 -19t24 -53q0 -18 -10.5 -35.5t-26.5 -27t-36 -14t-40 -4.5q-27 0 -55.5 6.5t-56.5 18.5l15 32q24 -10 45.5 -15.5t45.5 -5.5q22 0 39.5 11t17.5 33q0 21 -16 30t-40 9q-8 0 -15.5 -2t-25.5 -7l-21 17l52 76h42l-38 -55q6 1 22 3t19 2z" />
    <glyph glyph-name="onesuperior" unicode="&#xb9;" horiz-adv-x="181" 
d="M77 267v330l-59 -41v68l61 43h65v-400h-67z" />
    <glyph glyph-name="ordmasculine" unicode="&#xba;" horiz-adv-x="247" 
d="M39 293v47h171v-47h-171zM57 647q28 33 67 33q38 0 62 -25t24 -62v-114q0 -32 -21.5 -61.5t-59.5 -29.5q-25 0 -48 13t-30.5 28.5t-9.5 27t-2 22.5v114q0 33 18 54zM125 625q-29 0 -29 -32v-114q0 -33 30 -33q15 0 21 10t6 23v114q0 13 -7.5 22.5t-20.5 9.5z" />
    <glyph glyph-name="guillemotright" unicode="&#xbb;" horiz-adv-x="420" 
d="M207 479l190 -191l-190 -190v94l95 96l-95 95v96zM19 479l190 -191l-190 -190v94l95 96l-95 95v96z" />
    <glyph glyph-name="onequarter" unicode="&#xbc;" horiz-adv-x="566" 
d="M77 267v330l-59 -41v68l61 43h65v-400h-67zM38 0l364 667h53l-364 -667h-53zM447 0v60h-118v56l87 284h71l-89 -281h49v113h68v-113h29v-59h-29v-60h-68z" />
    <glyph glyph-name="onehalf" unicode="&#xbd;" horiz-adv-x="549" 
d="M77 267v330l-59 -41v68l61 43h65v-400h-67zM38 0l364 667h53l-364 -667h-53zM522 0h-185v56l111 204q6 14 6 27v30q0 11 -7 18t-18 7q-10 0 -17.5 -6.5t-7.5 -16.5v-38h-68v32q0 38 27.5 64.5t68.5 26.5q36 0 63 -25t27 -62v-37q0 -12 -3.5 -24t-11.5 -26l-90 -167h105
v-63z" />
    <glyph glyph-name="threequarters" unicode="&#xbe;" horiz-adv-x="627" 
d="M209 361q0 -13 -1.5 -25t-12.5 -30.5t-33.5 -30.5t-47.5 -12q-26 0 -48.5 14t-30 30.5t-9.5 28.5t-2 25v26h67v-22q0 -19 4 -28.5t21 -9.5q14 0 20 10t6 24v60q0 15 -9 20.5t-24 5.5h-15v56h15q33 0 33 30v47q0 12 -6.5 20.5t-17.5 8.5q-13 0 -20 -8t-7 -21v-32h-67v32
q0 38 27 64t66 26q38 0 65 -26t27 -64v-46q0 -33 -33 -59q18 -12 25.5 -26.5t7.5 -35.5v-52zM100 0l363 667h53l-364 -667h-52zM509 0v60h-119v56l87 284h71l-89 -281h50v113h67v-113h29v-59h-29v-60h-67z" />
    <glyph glyph-name="questiondown" unicode="&#xbf;" horiz-adv-x="374" 
d="M206 110l-50 -82q-16 -25 -16 -61v-52q0 -20 14 -32t35 -12q24 0 34.5 15t10.5 40v46h95v-46q0 -64 -41.5 -107.5t-105.5 -43.5q-55 0 -96 42t-41 98v57q0 49 23 90l59 103q13 25 13 63v53h96v-53q0 -39 -5.5 -63.5t-24.5 -54.5zM236 448v-95h-96v95h96z" />
    <glyph glyph-name="Agrave" unicode="&#xc0;" horiz-adv-x="379" 
d="M1 0l149 667h83l149 -667h-102l-27 143h-124l-27 -143h-101zM146 232h90l-45 243zM183 716l-137 136h94l104 -136h-61z" />
    <glyph glyph-name="Aacute" unicode="&#xc1;" horiz-adv-x="379" 
d="M1 0l149 667h83l149 -667h-102l-27 143h-124l-27 -143h-101zM146 232h90l-45 243zM140 716l103 136h94l-137 -136h-60z" />
    <glyph glyph-name="Acircumflex" unicode="&#xc2;" horiz-adv-x="379" 
d="M1 0l149 667h83l149 -667h-102l-27 143h-124l-27 -143h-101zM146 232h90l-45 243zM189 817l-70 -95h-72l104 136h80l103 -136h-73z" />
    <glyph glyph-name="Atilde" unicode="&#xc3;" horiz-adv-x="379" 
d="M1 0l149 667h83l149 -667h-102l-27 143h-124l-27 -143h-101zM146 232h90l-45 243zM133 784q-18 0 -27.5 -13.5t-13.5 -33.5h-42q6 38 25.5 67.5t58.5 29.5q26 0 62.5 -22.5t52.5 -22.5t25.5 13t14.5 31h41q-6 -38 -22 -65t-52 -27q-23 0 -65 21.5t-58 21.5z" />
    <glyph glyph-name="Adieresis" unicode="&#xc4;" horiz-adv-x="379" 
d="M1 0l149 667h83l149 -667h-102l-27 143h-124l-27 -143h-101zM146 232h90l-45 243zM240 708v111h83v-111h-83zM60 708v111h83v-111h-83z" />
    <glyph glyph-name="Aring" unicode="&#xc5;" horiz-adv-x="379" 
d="M1 0l149 667h83l149 -667h-102l-27 143h-124l-27 -143h-101zM146 232h90l-45 243zM189 707q-42 0 -72 30t-30 72t30.5 72.5t71.5 30.5q42 0 72.5 -30.5t30.5 -72.5t-30 -72t-73 -30zM189 748q26 0 44 18t18 43q0 26 -18 44t-44 18q-25 0 -43 -18t-18 -44q0 -25 18 -43
t43 -18z" />
    <glyph glyph-name="AE" unicode="&#xc6;" horiz-adv-x="619" 
d="M0 0l298 667h285v-88h-189v-197h166v-90h-166v-196h189v-96h-285v143h-138l-59 -143h-101zM197 232h101v243z" />
    <glyph glyph-name="Ccedilla" unicode="&#xc7;" horiz-adv-x="385" 
d="M67 69q-13 22 -17.5 45t-4.5 54v344q0 25 6.5 49t24 49.5t50 44t68.5 18.5q69 0 114.5 -45.5t45.5 -115.5v-36h-94v36q0 28 -15.5 46.5t-45.5 18.5q-27 0 -42.5 -18.5t-15.5 -46.5v-344v-13q0 -10 0.5 -19t13 -28t45.5 -19q35 0 45.5 17.5t12.5 26t2 23.5v12v22h94v-22
q0 -42 -4.5 -61.5t-22.5 -47t-53.5 -46.5t-60.5 -19l-34 -49l11 2q15 2 30 3q35 0 59 -19t24 -53q0 -18 -10.5 -35.5t-26.5 -27t-36 -14t-40 -4.5q-27 0 -55.5 6.5t-56.5 18.5l15 32q24 -10 45.5 -15.5t45.5 -5.5q22 0 39.5 11t17.5 33q0 21 -16 30t-39 9q-8 0 -17.5 -2
t-24.5 -7l-21 17l50 73q-33 7 -61 25.5t-45 46.5z" />
    <glyph glyph-name="Egrave" unicode="&#xc8;" horiz-adv-x="373" 
d="M337 96v-96h-285v667h285v-88h-191v-197h168v-90h-168v-196h191zM179 716l-137 136h94l104 -136h-61z" />
    <glyph glyph-name="Eacute" unicode="&#xc9;" horiz-adv-x="373" 
d="M337 96v-96h-285v667h285v-88h-191v-197h168v-90h-168v-196h191zM136 716l103 136h94l-137 -136h-60z" />
    <glyph glyph-name="Ecircumflex" unicode="&#xca;" horiz-adv-x="373" 
d="M337 96v-96h-285v667h285v-88h-191v-197h168v-90h-168v-196h191zM185 817l-70 -95h-72l104 136h80l103 -136h-73z" />
    <glyph glyph-name="Edieresis" unicode="&#xcb;" horiz-adv-x="373" 
d="M337 96v-96h-285v667h285v-88h-191v-197h168v-90h-168v-196h191zM235 708v111h83v-111h-83zM55 708v111h83v-111h-83z" />
    <glyph glyph-name="Igrave" unicode="&#xcc;" horiz-adv-x="199" 
d="M52 0v667h94v-667h-94zM92 716l-137 136h94l104 -136h-61z" />
    <glyph glyph-name="Iacute" unicode="&#xcd;" horiz-adv-x="199" 
d="M52 0v667h94v-667h-94zM49 716l103 136h94l-137 -136h-60z" />
    <glyph glyph-name="Icircumflex" unicode="&#xce;" horiz-adv-x="199" 
d="M52 0v667h94v-667h-94zM98 817l-70 -95h-72l104 136h80l103 -136h-73z" />
    <glyph glyph-name="Idieresis" unicode="&#xcf;" horiz-adv-x="199" 
d="M52 0v667h94v-667h-94zM148 708v111h83v-111h-83zM-32 708v111h83v-111h-83z" />
    <glyph glyph-name="Eth" unicode="&#xd0;" horiz-adv-x="405" 
d="M-6 304v80h58v283h151q64 0 110.5 -45.5t46.5 -109.5v-347q0 -72 -44.5 -118.5t-115.5 -46.5h-148v304h-58zM210 303h-63v-214h46q37 0 54.5 19.5t17.5 56.5v347q0 28 -20.5 46.5t-48.5 18.5h-49v-193h63v-81z" />
    <glyph glyph-name="Ntilde" unicode="&#xd1;" horiz-adv-x="437" 
d="M296 0l-149 405v-405h-95v667h90l148 -404v404h95v-667h-89zM161 784q-18 0 -27.5 -13.5t-13.5 -33.5h-42q6 38 25.5 67.5t58.5 29.5q26 0 62.5 -22.5t52.5 -22.5t25.5 13t14.5 31h41q-6 -38 -22 -65t-52 -27q-23 0 -65 21.5t-58 21.5z" />
    <glyph glyph-name="Ograve" unicode="&#xd2;" horiz-adv-x="411" 
d="M74 604q23 32 58 50.5t73 18.5q37 0 69.5 -15t54 -41t29.5 -53t8 -59v-340q0 -30 -5.5 -52.5t-23.5 -50.5t-53 -48t-76 -20q-47 0 -86.5 24t-55 54.5t-18.5 49t-3 43.5v340q0 30 6.5 53t22.5 46zM259 552q-20 27 -52 27q-17 0 -33.5 -9.5t-23 -21t-8.5 -23.5t-2 -20v-340
q0 -10 1.5 -22t16 -32.5t49.5 -20.5q18 0 32.5 8.5t21 19.5t8.5 21t2 26v340q0 20 -1.5 28t-10.5 19zM198 716l-137 136h94l104 -136h-61z" />
    <glyph glyph-name="Oacute" unicode="&#xd3;" horiz-adv-x="411" 
d="M74 604q23 32 58 50.5t73 18.5q37 0 69.5 -15t54 -41t29.5 -53t8 -59v-340q0 -30 -5.5 -52.5t-23.5 -50.5t-53 -48t-76 -20q-47 0 -86.5 24t-55 54.5t-18.5 49t-3 43.5v340q0 30 6.5 53t22.5 46zM259 552q-20 27 -52 27q-17 0 -33.5 -9.5t-23 -21t-8.5 -23.5t-2 -20v-340
q0 -10 1.5 -22t16 -32.5t49.5 -20.5q18 0 32.5 8.5t21 19.5t8.5 21t2 26v340q0 20 -1.5 28t-10.5 19zM155 716l103 136h94l-137 -136h-60z" />
    <glyph glyph-name="Ocircumflex" unicode="&#xd4;" horiz-adv-x="411" 
d="M74 604q23 32 58 50.5t73 18.5q37 0 69.5 -15t54 -41t29.5 -53t8 -59v-340q0 -30 -5.5 -52.5t-23.5 -50.5t-53 -48t-76 -20q-47 0 -86.5 24t-55 54.5t-18.5 49t-3 43.5v340q0 30 6.5 53t22.5 46zM259 552q-20 27 -52 27q-17 0 -33.5 -9.5t-23 -21t-8.5 -23.5t-2 -20v-340
q0 -10 1.5 -22t16 -32.5t49.5 -20.5q18 0 32.5 8.5t21 19.5t8.5 21t2 26v340q0 20 -1.5 28t-10.5 19zM204 817l-70 -95h-72l104 136h80l103 -136h-73z" />
    <glyph glyph-name="Otilde" unicode="&#xd5;" horiz-adv-x="411" 
d="M74 604q23 32 58 50.5t73 18.5q37 0 69.5 -15t54 -41t29.5 -53t8 -59v-340q0 -30 -5.5 -52.5t-23.5 -50.5t-53 -48t-76 -20q-47 0 -86.5 24t-55 54.5t-18.5 49t-3 43.5v340q0 30 6.5 53t22.5 46zM259 552q-20 27 -52 27q-17 0 -33.5 -9.5t-23 -21t-8.5 -23.5t-2 -20v-340
q0 -10 1.5 -22t16 -32.5t49.5 -20.5q18 0 32.5 8.5t21 19.5t8.5 21t2 26v340q0 20 -1.5 28t-10.5 19zM148 784q-18 0 -27.5 -13.5t-13.5 -33.5h-42q6 38 25.5 67.5t58.5 29.5q26 0 62.5 -22.5t52.5 -22.5t25.5 13t14.5 31h41q-6 -38 -22 -65t-52 -27q-23 0 -65 21.5
t-58 21.5z" />
    <glyph glyph-name="Odieresis" unicode="&#xd6;" horiz-adv-x="411" 
d="M74 604q23 32 58 50.5t73 18.5q37 0 69.5 -15t54 -41t29.5 -53t8 -59v-340q0 -30 -5.5 -52.5t-23.5 -50.5t-53 -48t-76 -20q-47 0 -86.5 24t-55 54.5t-18.5 49t-3 43.5v340q0 30 6.5 53t22.5 46zM259 552q-20 27 -52 27q-17 0 -33.5 -9.5t-23 -21t-8.5 -23.5t-2 -20v-340
q0 -10 1.5 -22t16 -32.5t49.5 -20.5q18 0 32.5 8.5t21 19.5t8.5 21t2 26v340q0 20 -1.5 28t-10.5 19zM254 708v111h83v-111h-83zM74 708v111h83v-111h-83z" />
    <glyph glyph-name="multiply" unicode="&#xd7;" 
d="M406 540l37 -38l-156 -155l156 -155l-37 -37l-155 156l-156 -157l-38 38l157 156l-156 154l37 37l155 -155z" />
    <glyph glyph-name="Oslash" unicode="&#xd8;" horiz-adv-x="411" 
d="M348 586q18 -36 18 -81v-340q0 -30 -5.5 -52.5t-24 -50.5t-54 -48t-75.5 -20q-65 0 -113 45l-29 -62l-41 19l39 83q-9 18 -13.5 39.5t-4.5 46.5v340q0 29 6.5 52.5t25.5 50.5t54 45.5t73 18.5q31 0 60 -11.5t54 -33.5l28 59l40 -19zM148 543q-4 -7 -6 -18t-2 -20v-260
l130 279q-3 22 -22 38t-42 16q-38 0 -58 -35zM263 123q5 9 6.5 18t1.5 24v255l-130 -278q7 -24 23.5 -38.5t42.5 -14.5q16 0 32 10t24 24z" />
    <glyph glyph-name="Ugrave" unicode="&#xd9;" horiz-adv-x="413" 
d="M340 70q-21 -34 -56 -55t-76 -21q-42 0 -79.5 21.5t-52.5 49t-19.5 48t-4.5 44.5v510h95v-510q0 -13 2 -22.5t15.5 -27.5t44.5 -18q29 0 43.5 21t14.5 47v510h95v-510q0 -24 -5 -45.5t-17 -41.5zM199 716l-137 136h94l104 -136h-61z" />
    <glyph glyph-name="Uacute" unicode="&#xda;" horiz-adv-x="413" 
d="M340 70q-21 -34 -56 -55t-76 -21q-42 0 -79.5 21.5t-52.5 49t-19.5 48t-4.5 44.5v510h95v-510q0 -13 2 -22.5t15.5 -27.5t44.5 -18q29 0 43.5 21t14.5 47v510h95v-510q0 -24 -5 -45.5t-17 -41.5zM157 716l103 136h94l-137 -136h-60z" />
    <glyph glyph-name="Ucircumflex" unicode="&#xdb;" horiz-adv-x="413" 
d="M340 70q-21 -34 -56 -55t-76 -21q-42 0 -79.5 21.5t-52.5 49t-19.5 48t-4.5 44.5v510h95v-510q0 -13 2 -22.5t15.5 -27.5t44.5 -18q29 0 43.5 21t14.5 47v510h95v-510q0 -24 -5 -45.5t-17 -41.5zM206 817l-70 -95h-72l104 136h80l103 -136h-73z" />
    <glyph glyph-name="Udieresis" unicode="&#xdc;" horiz-adv-x="413" 
d="M340 70q-21 -34 -56 -55t-76 -21q-42 0 -79.5 21.5t-52.5 49t-19.5 48t-4.5 44.5v510h95v-510q0 -13 2 -22.5t15.5 -27.5t44.5 -18q29 0 43.5 21t14.5 47v510h95v-510q0 -24 -5 -45.5t-17 -41.5zM256 708v111h83v-111h-83zM76 708v111h83v-111h-83z" />
    <glyph glyph-name="Yacute" unicode="&#xdd;" horiz-adv-x="348" 
d="M125 0v287l-129 380h100l77 -261l79 261h100l-132 -380v-287h-95zM121 716l103 136h94l-137 -136h-60z" />
    <glyph glyph-name="Thorn" unicode="&#xde;" horiz-adv-x="377" 
d="M52 0v668h96v-84l60 -1q29 0 58 -12t48.5 -31.5t33 -46.5t13.5 -52v-97q0 -37 -10 -66t-34.5 -53.5t-53 -35t-66.5 -10.5h-49v-179h-96zM254 288q11 11 14.5 23.5t3.5 32.5v87q0 28 -19 46t-48 18h-57v-226h49q20 0 32.5 3.5t24.5 15.5z" />
    <glyph glyph-name="germandbls" unicode="&#xdf;" horiz-adv-x="368" 
d="M63 603q19 32 51 51t69 19q57 0 101.5 -39.5t44.5 -96.5v-61q0 -59 -53 -87q53 -34 53 -95v-176q0 -30 -8 -51.5t-33 -44t-69 -22.5h-21v90h8q18 0 25.5 10.5t7.5 28.5v187q0 16 -11.5 23.5t-29.5 7.5v83h6q35 0 35 33v64q0 22 -14.5 36.5t-37.5 14.5q-27 0 -38 -16
t-11 -44v-518h-95v518q0 29 3.5 47t16.5 38z" />
    <glyph glyph-name="agrave" unicode="&#xe0;" horiz-adv-x="361" 
d="M45 50q-7 12 -9 26.5t-2 32.5v54q0 53 26.5 79t48 35.5t51.5 9.5h64v41q0 14 -1.5 23t-12.5 23t-30 14q-20 0 -34 -13t-17 -34h-95q0 58 41.5 99.5t100.5 41.5q58 0 101 -41t43 -100v-341h-96v48q-15 -25 -37.5 -39.5t-50.5 -14.5q-63 0 -91 56zM130 164v-24
q0 -19 13.5 -34.5t35.5 -15.5q12 0 22.5 6t16 16.5t6 27t0.5 23.5v46h-36q-26 0 -42 -10t-16 -35zM187 548l-137 136h94l104 -136h-61z" />
    <glyph glyph-name="aacute" unicode="&#xe1;" horiz-adv-x="361" 
d="M45 50q-7 12 -9 26.5t-2 32.5v54q0 53 26.5 79t48 35.5t51.5 9.5h64v41q0 14 -1.5 23t-12.5 23t-30 14q-20 0 -34 -13t-17 -34h-95q0 58 41.5 99.5t100.5 41.5q58 0 101 -41t43 -100v-341h-96v48q-15 -25 -37.5 -39.5t-50.5 -14.5q-63 0 -91 56zM130 164v-24
q0 -19 13.5 -34.5t35.5 -15.5q12 0 22.5 6t16 16.5t6 27t0.5 23.5v46h-36q-26 0 -42 -10t-16 -35zM124 548l103 136h94l-137 -136h-60z" />
    <glyph glyph-name="acircumflex" unicode="&#xe2;" horiz-adv-x="361" 
d="M45 50q-7 12 -9 26.5t-2 32.5v54q0 53 26.5 79t48 35.5t51.5 9.5h64v41q0 14 -1.5 23t-12.5 23t-30 14q-20 0 -34 -13t-17 -34h-95q0 58 41.5 99.5t100.5 41.5q58 0 101 -41t43 -100v-341h-96v48q-15 -25 -37.5 -39.5t-50.5 -14.5q-63 0 -91 56zM130 164v-24
q0 -19 13.5 -34.5t35.5 -15.5q12 0 22.5 6t16 16.5t6 27t0.5 23.5v46h-36q-26 0 -42 -10t-16 -35zM180 645l-70 -95h-72l104 136h80l103 -136h-73z" />
    <glyph glyph-name="atilde" unicode="&#xe3;" horiz-adv-x="361" 
d="M45 50q-7 12 -9 26.5t-2 32.5v54q0 53 26.5 79t48 35.5t51.5 9.5h64v41q0 14 -1.5 23t-12.5 23t-30 14q-20 0 -34 -13t-17 -34h-95q0 58 41.5 99.5t100.5 41.5q58 0 101 -41t43 -100v-341h-96v48q-15 -25 -37.5 -39.5t-50.5 -14.5q-63 0 -91 56zM130 164v-24
q0 -19 13.5 -34.5t35.5 -15.5q12 0 22.5 6t16 16.5t6 27t0.5 23.5v46h-36q-26 0 -42 -10t-16 -35zM124 620q-18 0 -27.5 -13.5t-13.5 -33.5h-42q6 38 25.5 67.5t58.5 29.5q26 0 62.5 -22.5t52.5 -22.5t25.5 13t14.5 31h41q-6 -38 -22 -65t-52 -27q-23 0 -65 21.5t-58 21.5z
" />
    <glyph glyph-name="adieresis" unicode="&#xe4;" horiz-adv-x="361" 
d="M45 50q-7 12 -9 26.5t-2 32.5v54q0 53 26.5 79t48 35.5t51.5 9.5h64v41q0 14 -1.5 23t-12.5 23t-30 14q-20 0 -34 -13t-17 -34h-95q0 58 41.5 99.5t100.5 41.5q58 0 101 -41t43 -100v-341h-96v48q-15 -25 -37.5 -39.5t-50.5 -14.5q-63 0 -91 56zM130 164v-24
q0 -19 13.5 -34.5t35.5 -15.5q12 0 22.5 6t16 16.5t6 27t0.5 23.5v46h-36q-26 0 -42 -10t-16 -35zM232 565v111h83v-111h-83zM52 565v111h83v-111h-83z" />
    <glyph glyph-name="aring" unicode="&#xe5;" horiz-adv-x="361" 
d="M45 50q-7 12 -9 26.5t-2 32.5v54q0 53 26.5 79t48 35.5t51.5 9.5h64v41q0 14 -1.5 23t-12.5 23t-30 14q-20 0 -34 -13t-17 -34h-95q0 58 41.5 99.5t100.5 41.5q58 0 101 -41t43 -100v-341h-96v48q-15 -25 -37.5 -39.5t-50.5 -14.5q-63 0 -91 56zM130 164v-24
q0 -19 13.5 -34.5t35.5 -15.5q12 0 22.5 6t16 16.5t6 27t0.5 23.5v46h-36q-26 0 -42 -10t-16 -35zM181 529q-42 0 -72 30t-30 72t30.5 72.5t71.5 30.5q42 0 72.5 -30.5t30.5 -72.5t-30 -72t-73 -30zM181 570q26 0 44 18t18 43q0 26 -18 44t-44 18q-25 0 -43 -18t-18 -44
q0 -25 18 -43t43 -18z" />
    <glyph glyph-name="ae" unicode="&#xe6;" horiz-adv-x="542" 
d="M319 136q0 -18 14 -32t31 -14q21 0 35.5 14.5t14.5 32.5h95v-10q0 -23 -9.5 -44.5t-39 -55t-94.5 -33.5q-37 0 -68 21t-50 56q-17 -33 -47.5 -55t-65.5 -22q-63 0 -80.5 34t-19.5 48.5t-2 32.5v53q0 55 26 80t47.5 34.5t54.5 9.5h62v42q0 14 -1.5 22.5t-12.5 23t-32 14.5
q-20 0 -33 -13t-16 -34h-95q0 58 41.5 99.5t100.5 41.5q56 0 97 -44q20 21 44 32.5t51 11.5q61 0 101.5 -42.5t40.5 -104.5v-132h-190v-67zM129 164v-24q0 -21 12 -35.5t36 -14.5q11 0 23.5 6t17.5 16.5t5 31.5v18v46h-36q-27 0 -42.5 -9.5t-15.5 -34.5zM366 388
q-26 0 -36.5 -17t-10.5 -42v-48h95v48q0 26 -11 42.5t-37 16.5z" />
    <glyph glyph-name="ccedilla" unicode="&#xe7;" horiz-adv-x="343" 
d="M61 55q-13 18 -19.5 42t-6.5 49v186q0 59 40.5 104.5t100.5 45.5q62 0 103 -44t41 -106h-95q0 22 -12.5 39t-34.5 17q-25 0 -36.5 -17t-11.5 -39v-186q0 -26 11.5 -41t37.5 -15q21 0 33.5 15.5t12.5 37.5h95v-6q0 -57 -40.5 -99.5t-92.5 -42.5l-34 -50l11 2q15 2 30 3
q35 0 59 -19t24 -53q0 -18 -10.5 -35.5t-26.5 -27t-36 -14t-40 -4.5q-27 0 -55.5 6.5t-56.5 18.5l15 32q24 -10 45.5 -15.5t45.5 -5.5q22 0 39.5 11t17.5 33q0 21 -16 30t-39 9q-8 0 -17.5 -2t-24.5 -7l-21 17l50 73q-54 13 -86 58z" />
    <glyph glyph-name="egrave" unicode="&#xe8;" horiz-adv-x="353" 
d="M175 91q21 0 34 13t16 34h95v-11q0 -22 -9.5 -44t-39.5 -55.5t-94 -33.5q-41 0 -75.5 22t-47.5 48.5t-16.5 48t-3.5 42.5v181q0 59 42.5 102.5t101.5 43.5q61 0 101.5 -42.5t40.5 -103.5v-132h-190v-71q0 -15 14.5 -28.5t30.5 -13.5zM177 388q-19 0 -33 -13t-14 -46v-47
h94v47q0 26 -11 42.5t-36 16.5zM182 548l-137 136h94l104 -136h-61z" />
    <glyph glyph-name="eacute" unicode="&#xe9;" horiz-adv-x="353" 
d="M175 91q21 0 34 13t16 34h95v-11q0 -22 -9.5 -44t-39.5 -55.5t-94 -33.5q-41 0 -75.5 22t-47.5 48.5t-16.5 48t-3.5 42.5v181q0 59 42.5 102.5t101.5 43.5q61 0 101.5 -42.5t40.5 -103.5v-132h-190v-71q0 -15 14.5 -28.5t30.5 -13.5zM177 388q-19 0 -33 -13t-14 -46v-47
h94v47q0 26 -11 42.5t-36 16.5zM119 548l103 136h94l-137 -136h-60z" />
    <glyph glyph-name="ecircumflex" unicode="&#xea;" horiz-adv-x="353" 
d="M175 91q21 0 34 13t16 34h95v-11q0 -22 -9.5 -44t-39.5 -55.5t-94 -33.5q-41 0 -75.5 22t-47.5 48.5t-16.5 48t-3.5 42.5v181q0 59 42.5 102.5t101.5 43.5q61 0 101.5 -42.5t40.5 -103.5v-132h-190v-71q0 -15 14.5 -28.5t30.5 -13.5zM177 388q-19 0 -33 -13t-14 -46v-47
h94v47q0 26 -11 42.5t-36 16.5zM175 645l-70 -95h-72l104 136h80l103 -136h-73z" />
    <glyph glyph-name="edieresis" unicode="&#xeb;" horiz-adv-x="353" 
d="M175 91q21 0 34 13t16 34h95v-11q0 -22 -9.5 -44t-39.5 -55.5t-94 -33.5q-41 0 -75.5 22t-47.5 48.5t-16.5 48t-3.5 42.5v181q0 59 42.5 102.5t101.5 43.5q61 0 101.5 -42.5t40.5 -103.5v-132h-190v-71q0 -15 14.5 -28.5t30.5 -13.5zM177 388q-19 0 -33 -13t-14 -46v-47
h94v47q0 26 -11 42.5t-36 16.5zM224 568v111h83v-111h-83zM44 568v111h83v-111h-83z" />
    <glyph glyph-name="igrave" unicode="&#xec;" horiz-adv-x="180" 
d="M42 0v476h95v-476h-95zM95 548l-137 136h94l104 -136h-61z" />
    <glyph glyph-name="iacute" unicode="&#xed;" horiz-adv-x="180" 
d="M42 0v476h95v-476h-95zM32 548l103 136h94l-137 -136h-60z" />
    <glyph glyph-name="icircumflex" unicode="&#xee;" horiz-adv-x="180" 
d="M42 0v476h95v-476h-95zM88 645l-70 -95h-72l104 136h80l103 -136h-73z" />
    <glyph glyph-name="idieresis" unicode="&#xef;" horiz-adv-x="180" 
d="M42 0v476h95v-476h-95zM138 568v111h83v-111h-83zM-42 568v111h83v-111h-83z" />
    <glyph glyph-name="eth" unicode="&#xf0;" horiz-adv-x="366" 
d="M55 618l38 28q30 -12 56 -28.5t48 -36.5l82 57l24 -34l-76 -53q56 -65 78 -147t22 -159v-109q0 -62 -41.5 -105.5t-102.5 -43.5q-71 0 -98.5 38.5t-35 58t-7.5 39.5v136q0 12 0.5 29.5t11.5 40.5t34.5 41t59.5 18q30 0 45 -4.5t27 -8.5q0 20 -12.5 59t-37.5 78l-87 -60
l-22 34l84 59q-17 22 -39 40.5t-51 32.5zM187 302q-25 0 -37 -16t-12 -41v-109q0 -24 12 -39.5t36 -15.5q28 0 37 18t9 37v109q0 26 -11.5 41.5t-33.5 15.5z" />
    <glyph glyph-name="ntilde" unicode="&#xf1;" horiz-adv-x="370" 
d="M313 433q8 -12 11 -29t3 -34v-370h-96v335q0 53 -47 53q-21 0 -34 -16t-13 -37v-335h-96v476h96v-46q32 52 89 52q58 0 87 -49zM127 620q-18 0 -27.5 -13.5t-13.5 -33.5h-42q6 38 25.5 67.5t58.5 29.5q26 0 62.5 -22.5t52.5 -22.5t25.5 13t14.5 31h41q-6 -38 -22 -65
t-52 -27q-23 0 -65 21.5t-58 21.5z" />
    <glyph glyph-name="ograve" unicode="&#xf2;" horiz-adv-x="355" 
d="M66 427q21 26 49.5 40.5t61.5 14.5q37 0 65.5 -13.5t53.5 -46.5t25 -86v-190q0 -54 -24 -86.5t-54 -49t-61 -16.5q-43 0 -78.5 21.5t-49 48t-16.5 44t-3 38.5v190q0 54 31 91zM179 389q-22 0 -35 -15t-13 -38v-190q0 -23 12.5 -39.5t35.5 -16.5q31 0 38.5 18t7.5 40v188
q0 22 -12.5 37.5t-33.5 15.5zM184 548l-137 136h94l104 -136h-61z" />
    <glyph glyph-name="oacute" unicode="&#xf3;" horiz-adv-x="355" 
d="M66 427q21 26 49.5 40.5t61.5 14.5q37 0 65.5 -13.5t53.5 -46.5t25 -86v-190q0 -54 -24 -86.5t-54 -49t-61 -16.5q-43 0 -78.5 21.5t-49 48t-16.5 44t-3 38.5v190q0 54 31 91zM179 389q-22 0 -35 -15t-13 -38v-190q0 -23 12.5 -39.5t35.5 -16.5q31 0 38.5 18t7.5 40v188
q0 22 -12.5 37.5t-33.5 15.5zM121 548l103 136h94l-137 -136h-60z" />
    <glyph glyph-name="ocircumflex" unicode="&#xf4;" horiz-adv-x="355" 
d="M66 427q21 26 49.5 40.5t61.5 14.5q37 0 65.5 -13.5t53.5 -46.5t25 -86v-190q0 -54 -24 -86.5t-54 -49t-61 -16.5q-43 0 -78.5 21.5t-49 48t-16.5 44t-3 38.5v190q0 54 31 91zM179 389q-22 0 -35 -15t-13 -38v-190q0 -23 12.5 -39.5t35.5 -16.5q31 0 38.5 18t7.5 40v188
q0 22 -12.5 37.5t-33.5 15.5zM176 645l-70 -95h-72l104 136h80l103 -136h-73z" />
    <glyph glyph-name="otilde" unicode="&#xf5;" horiz-adv-x="355" 
d="M66 427q21 26 49.5 40.5t61.5 14.5q37 0 65.5 -13.5t53.5 -46.5t25 -86v-190q0 -54 -24 -86.5t-54 -49t-61 -16.5q-43 0 -78.5 21.5t-49 48t-16.5 44t-3 38.5v190q0 54 31 91zM179 389q-22 0 -35 -15t-13 -38v-190q0 -23 12.5 -39.5t35.5 -16.5q31 0 38.5 18t7.5 40v188
q0 22 -12.5 37.5t-33.5 15.5zM121 620q-18 0 -27.5 -13.5t-13.5 -33.5h-42q6 38 25.5 67.5t58.5 29.5q26 0 62.5 -22.5t52.5 -22.5t25.5 13t14.5 31h41q-6 -38 -22 -65t-52 -27q-23 0 -65 21.5t-58 21.5z" />
    <glyph glyph-name="odieresis" unicode="&#xf6;" horiz-adv-x="355" 
d="M66 427q21 26 49.5 40.5t61.5 14.5q37 0 65.5 -13.5t53.5 -46.5t25 -86v-190q0 -54 -24 -86.5t-54 -49t-61 -16.5q-43 0 -78.5 21.5t-49 48t-16.5 44t-3 38.5v190q0 54 31 91zM179 389q-22 0 -35 -15t-13 -38v-190q0 -23 12.5 -39.5t35.5 -16.5q31 0 38.5 18t7.5 40v188
q0 22 -12.5 37.5t-33.5 15.5zM227 565v111h83v-111h-83zM47 565v111h83v-111h-83z" />
    <glyph glyph-name="divide" unicode="&#xf7;" 
d="M481 320h-463v52h463v-52zM250 482q-19 0 -32 13t-13 32q0 18 13 31t32 13q18 0 31 -13t13 -31q0 -19 -13 -32t-31 -13zM249 121q-18 0 -31 13t-13 32q0 18 13 31t31 13q19 0 32 -13t13 -31q0 -19 -13 -32t-32 -13z" />
    <glyph glyph-name="oslash" unicode="&#xf8;" horiz-adv-x="355" 
d="M302 411q18 -33 18 -75v-190q0 -28 -6.5 -50t-24 -45.5t-47.5 -40t-60 -16.5q-56 0 -100 36l-19 -33l-39 22l28 49q-17 35 -17 78v190q0 28 6.5 49.5t25.5 44t48.5 37.5t61.5 15q52 0 95 -34l20 35l39 -22zM130 336v-134l91 158q-6 12 -17.5 20.5t-25.5 8.5
q-21 0 -34.5 -15.5t-13.5 -37.5zM225 146v132l-91 -158q14 -30 46 -30q45 0 45 56z" />
    <glyph glyph-name="ugrave" unicode="&#xf9;" horiz-adv-x="371" 
d="M233 0v48q-17 -26 -37.5 -40t-49.5 -14t-54.5 16t-35.5 36.5t-11.5 33.5t-1.5 38v358h96v-322q0 -11 0.5 -22.5t11 -26.5t36.5 -15q13 0 24 7t15.5 16.5t5.5 20.5t1 20v322h96v-476h-96zM192 548l-137 136h94l104 -136h-61z" />
    <glyph glyph-name="uacute" unicode="&#xfa;" horiz-adv-x="371" 
d="M233 0v48q-17 -26 -37.5 -40t-49.5 -14t-54.5 16t-35.5 36.5t-11.5 33.5t-1.5 38v358h96v-322q0 -11 0.5 -22.5t11 -26.5t36.5 -15q13 0 24 7t15.5 16.5t5.5 20.5t1 20v322h96v-476h-96zM129 548l103 136h94l-137 -136h-60z" />
    <glyph glyph-name="ucircumflex" unicode="&#xfb;" horiz-adv-x="371" 
d="M233 0v48q-17 -26 -37.5 -40t-49.5 -14t-54.5 16t-35.5 36.5t-11.5 33.5t-1.5 38v358h96v-322q0 -11 0.5 -22.5t11 -26.5t36.5 -15q13 0 24 7t15.5 16.5t5.5 20.5t1 20v322h96v-476h-96zM185 645l-70 -95h-72l104 136h80l103 -136h-73z" />
    <glyph glyph-name="udieresis" unicode="&#xfc;" horiz-adv-x="371" 
d="M233 0v48q-17 -26 -37.5 -40t-49.5 -14t-54.5 16t-35.5 36.5t-11.5 33.5t-1.5 38v358h96v-322q0 -11 0.5 -22.5t11 -26.5t36.5 -15q13 0 24 7t15.5 16.5t5.5 20.5t1 20v322h96v-476h-96zM235 565v111h83v-111h-83zM55 565v111h83v-111h-83z" />
    <glyph glyph-name="yacute" unicode="&#xfd;" horiz-adv-x="329" 
d="M56 -190h-22v90h20q19 0 34.5 10t19.5 28l21 81l-132 457h101l66 -295l65 295h101l-137 -556q-14 -53 -48 -81.5t-89 -28.5zM108 549l103 136h94l-137 -136h-60z" />
    <glyph glyph-name="thorn" unicode="&#xfe;" horiz-adv-x="367" 
d="M43 -190v857h96v-237q15 24 39 38.5t52 14.5q42 0 70.5 -31.5t28.5 -74.5v-274q0 -21 -4 -36.5t-25 -43.5t-68 -28q-63 0 -93 53v-238h-96zM186 388q-22 0 -34.5 -15.5t-12.5 -37.5v-186q0 -27 10.5 -43t37.5 -16q24 0 35.5 14.5t11.5 43.5v187q0 23 -13 38t-35 15z" />
    <glyph glyph-name="ydieresis" unicode="&#xff;" horiz-adv-x="329" 
d="M56 -190h-22v90h20q19 0 34.5 10t19.5 28l21 81l-132 457h101l66 -295l65 295h101l-137 -556q-14 -53 -48 -81.5t-89 -28.5zM213 569v111h83v-111h-83zM33 569v111h83v-111h-83z" />
    <glyph glyph-name="OE" unicode="&#x152;" horiz-adv-x="591" 
d="M555 579h-189v-197h166v-90h-166v-196h189v-96h-272v14q-16 -8 -36.5 -14t-38.5 -6q-47 0 -86.5 24t-55 54.5t-18.5 49t-3 43.5v340q0 30 6.5 53t26 50.5t54.5 46t73 18.5q41 0 78 -20v14h272v-88zM259 552q-20 27 -52 27q-17 0 -33.5 -9.5t-23 -21t-8.5 -23.5t-2 -20
v-340q0 -10 1.5 -22t16 -32.5t49.5 -20.5q18 0 32.5 8.5t21 19.5t8.5 21t2 26v340q0 20 -1.5 28t-10.5 19z" />
    <glyph glyph-name="oe" unicode="&#x153;" horiz-adv-x="539" 
d="M316 133q0 -14 15 -28t31 -14q44 0 49 47h95v-10q0 -23 -9.5 -44.5t-39.5 -55.5t-94 -34q-51 0 -93 42q-21 -20 -43 -31t-48 -11q-43 0 -77.5 21t-47.5 48t-16.5 44t-3.5 39v190q0 54 26 85.5t54.5 46t61.5 14.5q55 0 95 -40q20 19 43.5 29.5t49.5 10.5q61 0 101.5 -42.5
t40.5 -103.5v-132h-190v-71zM178 389q-22 0 -35.5 -15.5t-13.5 -37.5v-190q0 -24 13.5 -39.5t36.5 -15.5q45 0 45 55v190q0 22 -12.5 37.5t-33.5 15.5zM363 388q-23 0 -35 -16t-12 -43v-47h95v47q0 26 -11 42.5t-37 16.5z" />
    <glyph glyph-name="Scaron" unicode="&#x160;" horiz-adv-x="387" 
d="M122 166q0 -19 1.5 -28.5t15 -29t49.5 -19.5q20 0 37 8.5t25 22t8.5 28t0.5 19.5v47q0 20 -1.5 30t-12 21.5t-30 21t-68 27.5t-81.5 56.5t-33 105.5v30q0 68 45.5 117.5t113.5 49.5q69 0 115.5 -48.5t46.5 -118.5v-30h-95v30q0 14 -2 24t-16 29t-47 19q-29 0 -47.5 -20.5
t-18.5 -51.5v-30q0 -19 1.5 -27.5t10.5 -19.5t26 -19t65.5 -25.5t85.5 -57t37 -107.5v-54q0 -33 -6.5 -58t-40.5 -69.5t-117 -44.5q-86 0 -125 56.5t-39 115.5v24h96v-24zM195 763l70 95h72l-104 -136h-80l-103 136h73z" />
    <glyph glyph-name="scaron" unicode="&#x161;" horiz-adv-x="330" 
d="M164 84q22 0 38 14t16 36q0 26 -13.5 38.5t-42.5 22.5l-19 7q-30 11 -50 21.5t-43 38t-23 79.5q0 59 41 100t101 41q55 0 93 -42t38 -95h-88q0 21 -13.5 34.5t-35.5 13.5q-20 0 -33 -15t-13 -36q0 -22 13 -34t38 -21l31 -10q27 -10 42.5 -19t31 -27t25.5 -42t10 -51
q0 -58 -41.5 -101.5t-99.5 -43.5q-35 0 -70.5 19t-55 51.5t-19.5 73.5h89q0 -22 15.5 -37.5t37.5 -15.5zM166 592l70 95h72l-104 -136h-80l-103 136h73z" />
    <glyph glyph-name="Ydieresis" unicode="&#x178;" horiz-adv-x="348" 
d="M125 0v287l-129 380h100l77 -261l79 261h100l-132 -380v-287h-95zM220 708v111h83v-111h-83zM40 708v111h83v-111h-83z" />
    <glyph glyph-name="florin" unicode="&#x192;" horiz-adv-x="480" 
d="M280 387l-65 -365q-17 -96 -52 -140t-125 -44q-26 0 -58 5l11 69q26 -3 50 -3q25 0 44 24.5t28 71.5l68 382h-101l11 61h101l17 97q9 51 18 79.5t33 54t56.5 33.5t77.5 8q20 0 35 -2t25 -3l-13 -69q-11 2 -22.5 3t-18.5 1q-47 0 -65 -27.5t-27 -80.5l-17 -94h104l-9 -61
h-106z" />
    <glyph glyph-name="circumflex" unicode="&#x2c6;" 
d="M249 646l-70 -95h-72l104 136h80l103 -136h-73z" />
    <glyph glyph-name="endash" unicode="&#x2013;" horiz-adv-x="523" 
d="M50 206v82h422v-82h-422z" />
    <glyph glyph-name="emdash" unicode="&#x2014;" horiz-adv-x="704" 
d="M-10 206v82h724v-82h-724z" />
    <glyph glyph-name="quoteleft" unicode="&#x2018;" horiz-adv-x="191" 
d="M120 683v-129h-71v93z" />
    <glyph glyph-name="quoteright" unicode="&#x2019;" horiz-adv-x="169" 
d="M50 537v129h71v-93z" />
    <glyph glyph-name="quotesinglbase" unicode="&#x201a;" horiz-adv-x="191" 
d="M49 -36v129h71v-93z" />
    <glyph glyph-name="quotedblleft" unicode="&#x201c;" horiz-adv-x="363" 
d="M240 683v-129h-71v93zM121 683v-129h-71v93z" />
    <glyph glyph-name="quotedblright" unicode="&#x201d;" horiz-adv-x="288" 
d="M50 537v129h71v-93zM169 537v129h71v-93z" />
    <glyph glyph-name="quotedblbase" unicode="&#x201e;" horiz-adv-x="286" 
d="M49 -36v129h71v-93zM168 -36v129h71v-93z" />
    <glyph glyph-name="dagger" unicode="&#x2020;" horiz-adv-x="576" 
d="M334 382v-544h-93v544h-182v82h182v203h93v-203h182v-82h-182z" />
    <glyph glyph-name="daggerdbl" unicode="&#x2021;" horiz-adv-x="576" 
d="M335 405v-305h181v-79h-181v-183h-93v183h-182v79h182v305h-182v80h182v182h93v-182h181v-80h-181z" />
    <glyph glyph-name="bullet" unicode="&#x2022;" horiz-adv-x="365" 
d="M183 200q-57 0 -97.5 41.5t-40.5 98.5t40 98t98 41q57 0 97 -41t40 -98q0 -56 -40 -98t-97 -42z" />
    <glyph glyph-name="ellipsis" unicode="&#x2026;" horiz-adv-x="574" 
d="M48 0v95h95v-95h-95zM239 0v95h96v-95h-96zM431 0v95h95v-95h-95z" />
    <glyph glyph-name="perthousand" unicode="&#x2030;" horiz-adv-x="792" 
d="M65 -15l366 686h54l-367 -686h-53zM57 628q30 38 75 38q43 0 70.5 -28.5t27.5 -70.5v-130q0 -37 -17 -59.5t-35 -33t-41 -10.5q-30 0 -54.5 14.5t-33.5 33t-11 30.5t-2 25v130q0 21 4 34t17 27zM341 284q30 38 75 38q43 0 70.5 -28.5t27.5 -70.5v-130q0 -37 -17 -59.5
t-35 -33t-41 -10.5q-30 0 -54.5 14.5t-33.5 33t-11 30.5t-2 25v130q0 21 4 34t17 27zM583 284q30 38 75 38q43 0 70.5 -28.5t27.5 -70.5v-130q0 -37 -17 -59.5t-35 -33t-41 -10.5q-30 0 -54.5 14.5t-33.5 33t-11 30.5t-2 25v130q0 21 4 34t17 27zM417 259q-15 0 -24 -11
t-9 -25v-130q0 -38 34 -38q18 0 24.5 11.5t6.5 26.5v130q0 15 -8.5 25.5t-23.5 10.5zM133 603q-15 0 -24 -11t-9 -25v-130q0 -38 34 -38q18 0 24.5 11.5t6.5 26.5v130q0 15 -8.5 25.5t-23.5 10.5zM659 259q-15 0 -24 -11t-9 -25v-130q0 -38 34 -38q18 0 24.5 11.5t6.5 26.5
v130q0 15 -8.5 25.5t-23.5 10.5z" />
    <glyph glyph-name="guilsinglleft" unicode="&#x2039;" horiz-adv-x="237" 
d="M53 288l119 124v-80l-75 -86l75 -83v-82l-119 122v85z" />
    <glyph glyph-name="guilsinglright" unicode="&#x203a;" horiz-adv-x="237" 
d="M185 205l-120 -124v79l75 88l-75 83v82l120 -122v-86z" />
    <glyph glyph-name="trademark" unicode="&#x2122;" horiz-adv-x="588" 
d="M85 267v341h-69v59h207v-59h-70v-341h-68zM484 267v220l-53 -148h-36l-51 147v-219h-67v400h62l75 -201l74 201h62v-400h-66z" />
    <glyph glyph-name="fraction" horiz-adv-x="132" 
d="M-143 0l364 667h53l-364 -667h-53z" />
    <glyph glyph-name="fi" horiz-adv-x="415" 
d="M63 0v400h-47v76h47v66q0 56 28 83t52 34.5t53 7.5h33v-88h-35q-35 0 -35 -37v-66h70v-76h-70v-400h-96zM277 0v476h96v-476h-96zM277 573v94h96v-94h-96z" />
    <glyph glyph-name="fl" horiz-adv-x="437" 
d="M63 0v400h-47v76h47v66q0 56 28 83t52 34.5t53 7.5h33v-88h-35q-35 0 -35 -37v-66h70v-76h-70v-400h-96zM413 91h7v-91h-22q-22 0 -42 5t-40 20.5t-29.5 39.5t-9.5 55v547h96v-530q0 -26 8 -36t32 -10z" />
    <glyph glyph-name="dotlessi" horiz-adv-x="180" 
d="M42 0v476h95v-476h-95z" />
    <glyph glyph-name="tilde" 
d="M193 620q-18 0 -27.5 -13.5t-13.5 -33.5h-42q6 38 25.5 67.5t58.5 29.5q26 0 62.5 -22.5t52.5 -22.5t25.5 13t14.5 31h41q-6 -38 -22 -65t-52 -27q-23 0 -65 21.5t-58 21.5z" />
    <glyph glyph-name="macron" 
d="M105 599v46h289v-46h-289z" />
    <glyph glyph-name="breve" 
d="M110 681h46q7 -34 32 -52t61 -18q78 0 96 70h45q-7 -57 -44.5 -88.5t-96.5 -31.5t-99 32t-40 88z" />
    <glyph glyph-name="dotaccent" 
d="M209 568v111h83v-111h-83z" />
    <glyph glyph-name="ring" 
d="M250 529q-42 0 -72 30t-30 72t30.5 72.5t71.5 30.5q42 0 72.5 -30.5t30.5 -72.5t-30 -72t-73 -30zM250 570q26 0 44 18t18 43q0 26 -18 44t-44 18q-25 0 -43 -18t-18 -44q0 -25 18 -43t43 -18z" />
    <glyph glyph-name="hungarumlaut" 
d="M162 548l69 136h82l-97 -136h-54zM306 548l69 136h82l-97 -136h-54z" />
    <glyph glyph-name="ogonek" 
d="M224 -82q0 -21 18.5 -35.5t40.5 -14.5q25 0 47 7l1 -40q-30 -10 -63 -10q-35 0 -64.5 22t-29.5 55q0 31 14.5 53.5t41.5 44.5h50q-25 -18 -40.5 -38t-15.5 -44z" />
    <glyph glyph-name="caron" 
d="M252 592l70 95h72l-104 -136h-80l-103 136h73z" />
    <glyph glyph-name="Lslash" horiz-adv-x="357" 
d="M-15 325l63 46v296h95v-234l84 60v-77l-84 -59v-261h190v-96h-285v294l-63 -45v76z" />
    <glyph glyph-name="lslash" horiz-adv-x="202" 
d="M156 667v-242l71 48v-67l-71 -48v-221q0 -26 8 -36t32 -10h7v-91h-21q-23 0 -43 5t-40.5 21t-29 38.5t-8.5 55.5v174l-61 -41v68l61 41v305h95z" />
    <glyph glyph-name="Zcaron" horiz-adv-x="345" 
d="M32 0v86l179 492h-166v89h273v-77l-179 -494h179v-96h-286zM175 763l70 95h72l-104 -136h-80l-103 136h73z" />
    <glyph glyph-name="zcaron" horiz-adv-x="305" 
d="M22 0v79l153 315h-142v82h249v-69l-153 -316h153v-91h-260zM154 591l70 95h72l-104 -136h-80l-103 136h73z" />
    <glyph glyph-name="minus" 
d="M481 321h-463v52h463v-52z" />
  </font>
</defs>
</svg>
